<svg width="167" height="30" viewBox="0 0 167 30" fill="none" xmlns="http://www.w3.org/2000/svg">
<path fill-rule="evenodd" clip-rule="evenodd" d="M25 7.41525L21.2992 5.21988L7.49902 13.5L12.499 16.5L19.999 12V19L12.499 23L4.99902 19V10.5L17.6062 3.02909L12.5 0L0 7.41525V21.822L12.5 29.2373L25 21.822V7.41525ZM153.647 11.76H156.147V22.44H153.647V11.76ZM154.907 10C154.453 10 154.073 9.86 153.767 9.58C153.46 9.28667 153.307 8.92667 153.307 8.5C153.307 8.07333 153.46 7.72 153.767 7.44C154.073 7.14667 154.453 7 154.907 7C155.36 7 155.74 7.14 156.047 7.42C156.353 7.68667 156.507 8.02667 156.507 8.44C156.507 8.88 156.353 9.25333 156.047 9.56C155.753 9.85333 155.373 10 154.907 10ZM149.376 22.44V7.6H146.876V13.08C146.463 12.6 145.963 12.24 145.376 12C144.79 11.76 144.143 11.64 143.436 11.64C142.41 11.64 141.483 11.8667 140.656 12.32C139.843 12.7733 139.203 13.4133 138.736 14.24C138.27 15.0667 138.036 16.02 138.036 17.1C138.036 18.18 138.27 19.14 138.736 19.98C139.203 20.8067 139.843 21.4467 140.656 21.9C141.483 22.3533 142.41 22.58 143.436 22.58C144.17 22.58 144.836 22.4533 145.436 22.2C146.05 21.9467 146.563 21.5667 146.976 21.06V22.44H149.376ZM145.356 20.04C144.876 20.3067 144.336 20.44 143.736 20.44C143.136 20.44 142.596 20.3067 142.116 20.04C141.636 19.76 141.256 19.3667 140.976 18.86C140.696 18.3533 140.556 17.7667 140.556 17.1C140.556 16.4333 140.696 15.8467 140.976 15.34C141.256 14.8333 141.636 14.4467 142.116 14.18C142.596 13.9 143.136 13.76 143.736 13.76C144.336 13.76 144.876 13.9 145.356 14.18C145.836 14.4467 146.216 14.8333 146.496 15.34C146.776 15.8467 146.916 16.4333 146.916 17.1C146.916 17.7667 146.776 18.3533 146.496 18.86C146.216 19.3667 145.836 19.76 145.356 20.04ZM45.56 15.28H48.02V20.86C47.3 21.4333 46.46 21.8733 45.5 22.18C44.54 22.4867 43.5533 22.64 42.54 22.64C41.1133 22.64 39.8267 22.3333 38.68 21.72C37.5333 21.0933 36.6333 20.2333 35.98 19.14C35.3267 18.0467 35 16.8133 35 15.44C35 14.0667 35.3267 12.8333 35.98 11.74C36.6333 10.6467 37.5333 9.79333 38.68 9.18C39.84 8.55333 41.14 8.24 42.58 8.24C43.7533 8.24 44.82 8.43333 45.78 8.82C46.74 9.20667 47.5467 9.77333 48.2 10.52L46.56 12.12C45.4933 11.0533 44.2067 10.52 42.7 10.52C41.7133 10.52 40.8333 10.7267 40.06 11.14C39.3 11.5533 38.7 12.1333 38.26 12.88C37.8333 13.6267 37.62 14.48 37.62 15.44C37.62 16.3733 37.8333 17.2133 38.26 17.96C38.7 18.7067 39.3 19.2933 40.06 19.72C40.8333 20.1467 41.7067 20.36 42.68 20.36C43.7733 20.36 44.7333 20.12 45.56 19.64V15.28ZM62.5492 11.76V22.44H60.1692V21.08C59.7692 21.56 59.2692 21.9333 58.6692 22.2C58.0692 22.4533 57.4226 22.58 56.7292 22.58C55.3026 22.58 54.1759 22.1867 53.3492 21.4C52.5359 20.6 52.1292 19.42 52.1292 17.86V11.76H54.6292V17.52C54.6292 18.48 54.8426 19.2 55.2692 19.68C55.7092 20.1467 56.3292 20.38 57.1292 20.38C58.0226 20.38 58.7292 20.1067 59.2492 19.56C59.7826 19 60.0492 18.2 60.0492 17.16V11.76H62.5492ZM67.5825 22.24C68.4092 22.4667 69.2558 22.58 70.1225 22.58C71.6158 22.58 72.7958 22.28 73.6625 21.68C74.5292 21.08 74.9625 20.28 74.9625 19.28C74.9625 18.52 74.7625 17.9333 74.3625 17.52C73.9758 17.1067 73.5092 16.8133 72.9625 16.64C72.4158 16.4667 71.7158 16.3133 70.8625 16.18C70.0092 16.0333 69.3758 15.88 68.9625 15.72C68.5625 15.5467 68.3625 15.26 68.3625 14.86C68.3625 14.5 68.5492 14.2133 68.9225 14C69.3092 13.7733 69.8692 13.66 70.6025 13.66C71.7358 13.66 72.7558 13.9267 73.6625 14.46L74.6225 12.56C74.1558 12.28 73.5558 12.06 72.8225 11.9C72.0892 11.7267 71.3558 11.64 70.6225 11.64C69.1825 11.64 68.0358 11.9467 67.1825 12.56C66.3425 13.16 65.9225 13.9667 65.9225 14.98C65.9225 15.7533 66.1225 16.36 66.5225 16.8C66.9358 17.2267 67.4158 17.5267 67.9625 17.7C68.5225 17.8733 69.2425 18.0267 70.1225 18.16C70.9625 18.2933 71.5692 18.4333 71.9425 18.58C72.3292 18.7267 72.5225 18.9867 72.5225 19.36C72.5225 20.1467 71.7758 20.54 70.2825 20.54C69.6292 20.54 68.9625 20.4467 68.2825 20.26C67.6158 20.06 67.0425 19.8 66.5625 19.48L65.6025 21.38C66.0958 21.7267 66.7558 22.0133 67.5825 22.24ZM84.5355 21.86C84.2421 22.1 83.8821 22.28 83.4555 22.4C83.0421 22.52 82.6021 22.58 82.1355 22.58C80.9621 22.58 80.0555 22.2733 79.4155 21.66C78.7755 21.0467 78.4555 20.1533 78.4555 18.98V13.84H76.6955V11.84H78.4555V9.4H80.9555V11.84H83.8155V13.84H80.9555V18.92C80.9555 19.44 81.0821 19.84 81.3355 20.12C81.5888 20.3867 81.9555 20.52 82.4355 20.52C82.9955 20.52 83.4621 20.3733 83.8355 20.08L84.5355 21.86ZM95.272 12.78C94.4454 12.02 93.2454 11.64 91.672 11.64C90.792 11.64 89.9587 11.7533 89.172 11.98C88.3854 12.2067 87.712 12.5333 87.152 12.96L88.132 14.78C88.532 14.4467 89.0187 14.1867 89.592 14C90.1787 13.8133 90.772 13.72 91.372 13.72C92.252 13.72 92.912 13.92 93.352 14.32C93.8054 14.72 94.032 15.2933 94.032 16.04V16.2H91.272C89.7387 16.2 88.612 16.4933 87.892 17.08C87.1854 17.6533 86.832 18.42 86.832 19.38C86.832 19.9933 86.992 20.5467 87.312 21.04C87.6454 21.52 88.112 21.9 88.712 22.18C89.312 22.4467 90.012 22.58 90.812 22.58C91.612 22.58 92.292 22.46 92.852 22.22C93.4254 21.9667 93.8654 21.6067 94.172 21.14V22.44H96.532V16.18C96.532 14.66 96.112 13.5267 95.272 12.78ZM92.992 20.34C92.512 20.62 91.9587 20.76 91.332 20.76C90.692 20.76 90.192 20.6267 89.832 20.36C89.472 20.0933 89.292 19.7333 89.292 19.28C89.292 18.3333 90.012 17.86 91.452 17.86H94.032V19.1C93.832 19.6333 93.4854 20.0467 92.992 20.34ZM107.46 22.64C106.047 22.64 104.767 22.3333 103.62 21.72C102.487 21.0933 101.594 20.2333 100.94 19.14C100.3 18.0467 99.9805 16.8133 99.9805 15.44C99.9805 14.0667 100.307 12.8333 100.96 11.74C101.614 10.6467 102.507 9.79333 103.64 9.18C104.787 8.55333 106.067 8.24 107.48 8.24C108.627 8.24 109.674 8.44 110.62 8.84C111.567 9.24 112.367 9.82 113.02 10.58L111.34 12.16C110.327 11.0667 109.08 10.52 107.6 10.52C106.64 10.52 105.78 10.7333 105.02 11.16C104.26 11.5733 103.667 12.1533 103.24 12.9C102.814 13.6467 102.6 14.4933 102.6 15.44C102.6 16.3867 102.814 17.2333 103.24 17.98C103.667 18.7267 104.26 19.3133 105.02 19.74C105.78 20.1533 106.64 20.36 107.6 20.36C109.08 20.36 110.327 19.8067 111.34 18.7L113.02 20.3C112.367 21.06 111.56 21.64 110.6 22.04C109.654 22.44 108.607 22.64 107.46 22.64ZM122.452 11.64C120.638 11.64 119.372 12.2 118.652 13.32V11.76H116.272V22.44H118.772V17.26C118.772 16.1933 119.045 15.38 119.592 14.82C120.138 14.2467 120.898 13.96 121.872 13.96C122.045 13.96 122.238 13.98 122.452 14.02V11.64ZM135.515 17.16C135.515 17.3333 135.502 17.58 135.475 17.9H127.095C127.242 18.6867 127.622 19.3133 128.235 19.78C128.862 20.2333 129.635 20.46 130.555 20.46C131.728 20.46 132.695 20.0733 133.455 19.3L134.795 20.84C134.315 21.4133 133.708 21.8467 132.975 22.14C132.242 22.4333 131.415 22.58 130.495 22.58C129.322 22.58 128.288 22.3467 127.395 21.88C126.502 21.4133 125.808 20.7667 125.315 19.94C124.835 19.1 124.595 18.1533 124.595 17.1C124.595 16.06 124.828 15.1267 125.295 14.3C125.775 13.46 126.435 12.8067 127.275 12.34C128.115 11.8733 129.062 11.64 130.115 11.64C131.155 11.64 132.082 11.8733 132.895 12.34C133.722 12.7933 134.362 13.44 134.815 14.28C135.282 15.1067 135.515 16.0667 135.515 17.16ZM130.115 13.64C129.315 13.64 128.635 13.88 128.075 14.36C127.528 14.8267 127.195 15.4533 127.075 16.24H133.135C133.028 15.4667 132.702 14.84 132.155 14.36C131.608 13.88 130.928 13.64 130.115 13.64ZM165.768 22.4C166.195 22.28 166.555 22.1 166.848 21.86L166.148 20.08C165.775 20.3733 165.308 20.52 164.748 20.52C164.268 20.52 163.901 20.3867 163.648 20.12C163.395 19.84 163.268 19.44 163.268 18.92V13.84H166.128V11.84H163.268V9.4H160.768V11.84H159.008V13.84H160.768V18.98C160.768 20.1533 161.088 21.0467 161.728 21.66C162.368 22.2733 163.275 22.58 164.448 22.58C164.915 22.58 165.355 22.52 165.768 22.4Z" fill="white"/>
</svg>
